<mxfile host="app.diagrams.net" agent="Mozilla/5.0 (X11; Linux x86_64) AppleWebKit/537.36 (KHTML, like Gecko) Chrome/133.0.0.0 Safari/537.36" version="26.1.0">
  <diagram name="Page-1" id="Jsg7IJ3bIs8C2-iKhxGt">
    <mxGraphModel dx="1802" dy="2144" grid="1" gridSize="10" guides="1" tooltips="1" connect="1" arrows="1" fold="1" page="1" pageScale="1" pageWidth="827" pageHeight="1169" math="0" shadow="0">
      <root>
        <mxCell id="0" />
        <mxCell id="1" parent="0" />
        <mxCell id="RDD4g2kwhbk00n5F4Vmj-4" value="" style="group" vertex="1" connectable="0" parent="1">
          <mxGeometry x="44" y="510" width="740" height="470" as="geometry" />
        </mxCell>
        <mxCell id="RDD4g2kwhbk00n5F4Vmj-2" value="Private Subnet" style="sketch=0;outlineConnect=0;gradientColor=none;html=1;whiteSpace=wrap;fontSize=12;fontStyle=0;shape=mxgraph.aws4.group;grIcon=mxgraph.aws4.group_subnet;strokeColor=#879196;fillColor=none;verticalAlign=top;align=left;spacingLeft=30;fontColor=#879196;dashed=0;" vertex="1" parent="RDD4g2kwhbk00n5F4Vmj-4">
          <mxGeometry x="-1" y="-90" width="740" height="450" as="geometry" />
        </mxCell>
        <mxCell id="RDD4g2kwhbk00n5F4Vmj-9" value="" style="group" vertex="1" connectable="0" parent="RDD4g2kwhbk00n5F4Vmj-4">
          <mxGeometry x="66" y="89" width="90" height="181" as="geometry" />
        </mxCell>
        <mxCell id="RDD4g2kwhbk00n5F4Vmj-1" value="" style="sketch=0;points=[[0,0,0],[0.25,0,0],[0.5,0,0],[0.75,0,0],[1,0,0],[0,1,0],[0.25,1,0],[0.5,1,0],[0.75,1,0],[1,1,0],[0,0.25,0],[0,0.5,0],[0,0.75,0],[1,0.25,0],[1,0.5,0],[1,0.75,0]];outlineConnect=0;fontColor=#232F3E;fillColor=#ED7100;strokeColor=#ffffff;dashed=0;verticalLabelPosition=bottom;verticalAlign=top;align=center;html=1;fontSize=12;fontStyle=0;aspect=fixed;shape=mxgraph.aws4.resourceIcon;resIcon=mxgraph.aws4.eks;" vertex="1" parent="RDD4g2kwhbk00n5F4Vmj-9">
          <mxGeometry y="41" width="90" height="90" as="geometry" />
        </mxCell>
        <mxCell id="RDD4g2kwhbk00n5F4Vmj-5" value="EKS&lt;div&gt;Kubernetes&lt;/div&gt;&lt;div&gt;Platform&lt;/div&gt;" style="text;html=1;align=center;verticalAlign=middle;whiteSpace=wrap;rounded=0;" vertex="1" parent="RDD4g2kwhbk00n5F4Vmj-9">
          <mxGeometry x="15" y="151" width="60" height="30" as="geometry" />
        </mxCell>
        <mxCell id="RDD4g2kwhbk00n5F4Vmj-7" value="Backend" style="text;html=1;align=center;verticalAlign=middle;whiteSpace=wrap;rounded=0;fontSize=19;" vertex="1" parent="RDD4g2kwhbk00n5F4Vmj-9">
          <mxGeometry x="15" width="60" height="30" as="geometry" />
        </mxCell>
        <mxCell id="RDD4g2kwhbk00n5F4Vmj-6" style="edgeStyle=orthogonalEdgeStyle;rounded=0;orthogonalLoop=1;jettySize=auto;html=1;exitX=0.5;exitY=1;exitDx=0;exitDy=0;" edge="1" parent="RDD4g2kwhbk00n5F4Vmj-9" source="RDD4g2kwhbk00n5F4Vmj-5" target="RDD4g2kwhbk00n5F4Vmj-5">
          <mxGeometry relative="1" as="geometry" />
        </mxCell>
        <mxCell id="RDD4g2kwhbk00n5F4Vmj-11" style="edgeStyle=orthogonalEdgeStyle;rounded=0;orthogonalLoop=1;jettySize=auto;html=1;entryX=0;entryY=0.5;entryDx=0;entryDy=0;entryPerimeter=0;" edge="1" parent="RDD4g2kwhbk00n5F4Vmj-4" source="RDD4g2kwhbk00n5F4Vmj-1" target="RDD4g2kwhbk00n5F4Vmj-10">
          <mxGeometry relative="1" as="geometry">
            <Array as="points">
              <mxPoint x="276" y="175" />
              <mxPoint x="276" y="269" />
            </Array>
          </mxGeometry>
        </mxCell>
        <mxCell id="RDD4g2kwhbk00n5F4Vmj-15" style="edgeStyle=orthogonalEdgeStyle;rounded=0;orthogonalLoop=1;jettySize=auto;html=1;" edge="1" parent="RDD4g2kwhbk00n5F4Vmj-4" source="RDD4g2kwhbk00n5F4Vmj-1" target="RDD4g2kwhbk00n5F4Vmj-14">
          <mxGeometry relative="1" as="geometry" />
        </mxCell>
        <mxCell id="RDD4g2kwhbk00n5F4Vmj-16" value="" style="group" vertex="1" connectable="0" parent="RDD4g2kwhbk00n5F4Vmj-4">
          <mxGeometry x="384" y="230" width="78" height="120" as="geometry" />
        </mxCell>
        <mxCell id="RDD4g2kwhbk00n5F4Vmj-10" value="" style="sketch=0;points=[[0,0,0],[0.25,0,0],[0.5,0,0],[0.75,0,0],[1,0,0],[0,1,0],[0.25,1,0],[0.5,1,0],[0.75,1,0],[1,1,0],[0,0.25,0],[0,0.5,0],[0,0.75,0],[1,0.25,0],[1,0.5,0],[1,0.75,0]];outlineConnect=0;fontColor=#232F3E;fillColor=#C925D1;strokeColor=#ffffff;dashed=0;verticalLabelPosition=bottom;verticalAlign=top;align=center;html=1;fontSize=12;fontStyle=0;aspect=fixed;shape=mxgraph.aws4.resourceIcon;resIcon=mxgraph.aws4.documentdb_with_mongodb_compatibility;" vertex="1" parent="RDD4g2kwhbk00n5F4Vmj-16">
          <mxGeometry width="78" height="78" as="geometry" />
        </mxCell>
        <mxCell id="RDD4g2kwhbk00n5F4Vmj-12" value="DocumentDB" style="text;html=1;align=center;verticalAlign=middle;whiteSpace=wrap;rounded=0;" vertex="1" parent="RDD4g2kwhbk00n5F4Vmj-16">
          <mxGeometry x="1.5" y="90" width="75" height="30" as="geometry" />
        </mxCell>
        <mxCell id="RDD4g2kwhbk00n5F4Vmj-13" style="edgeStyle=orthogonalEdgeStyle;rounded=0;orthogonalLoop=1;jettySize=auto;html=1;exitX=0.5;exitY=1;exitDx=0;exitDy=0;" edge="1" parent="RDD4g2kwhbk00n5F4Vmj-16" source="RDD4g2kwhbk00n5F4Vmj-12" target="RDD4g2kwhbk00n5F4Vmj-12">
          <mxGeometry relative="1" as="geometry" />
        </mxCell>
        <mxCell id="RDD4g2kwhbk00n5F4Vmj-19" value="" style="group" vertex="1" connectable="0" parent="RDD4g2kwhbk00n5F4Vmj-4">
          <mxGeometry x="494" y="230" width="85.5" height="120" as="geometry" />
        </mxCell>
        <mxCell id="RDD4g2kwhbk00n5F4Vmj-14" value="" style="sketch=0;points=[[0,0,0],[0.25,0,0],[0.5,0,0],[0.75,0,0],[1,0,0],[0,1,0],[0.25,1,0],[0.5,1,0],[0.75,1,0],[1,1,0],[0,0.25,0],[0,0.5,0],[0,0.75,0],[1,0.25,0],[1,0.5,0],[1,0.75,0]];outlineConnect=0;fontColor=#232F3E;fillColor=#C925D1;strokeColor=#ffffff;dashed=0;verticalLabelPosition=bottom;verticalAlign=top;align=center;html=1;fontSize=12;fontStyle=0;aspect=fixed;shape=mxgraph.aws4.resourceIcon;resIcon=mxgraph.aws4.rds;" vertex="1" parent="RDD4g2kwhbk00n5F4Vmj-19">
          <mxGeometry width="78" height="78" as="geometry" />
        </mxCell>
        <mxCell id="RDD4g2kwhbk00n5F4Vmj-17" value="RDS&lt;div&gt;SQL Database&lt;/div&gt;" style="text;html=1;align=center;verticalAlign=middle;whiteSpace=wrap;rounded=0;" vertex="1" parent="RDD4g2kwhbk00n5F4Vmj-19">
          <mxGeometry x="-1.5" y="90" width="84" height="30" as="geometry" />
        </mxCell>
        <mxCell id="RDD4g2kwhbk00n5F4Vmj-23" value="" style="group" vertex="1" connectable="0" parent="RDD4g2kwhbk00n5F4Vmj-4">
          <mxGeometry x="601" y="230" width="84" height="120" as="geometry" />
        </mxCell>
        <mxCell id="RDD4g2kwhbk00n5F4Vmj-20" value="" style="sketch=0;points=[[0,0,0],[0.25,0,0],[0.5,0,0],[0.75,0,0],[1,0,0],[0,1,0],[0.25,1,0],[0.5,1,0],[0.75,1,0],[1,1,0],[0,0.25,0],[0,0.5,0],[0,0.75,0],[1,0.25,0],[1,0.5,0],[1,0.75,0]];outlineConnect=0;fontColor=#232F3E;fillColor=#C925D1;strokeColor=#ffffff;dashed=0;verticalLabelPosition=bottom;verticalAlign=top;align=center;html=1;fontSize=12;fontStyle=0;aspect=fixed;shape=mxgraph.aws4.resourceIcon;resIcon=mxgraph.aws4.memorydb_for_redis;" vertex="1" parent="RDD4g2kwhbk00n5F4Vmj-23">
          <mxGeometry x="3" width="78" height="78" as="geometry" />
        </mxCell>
        <mxCell id="RDD4g2kwhbk00n5F4Vmj-22" value="MemoryDB" style="text;html=1;align=center;verticalAlign=middle;whiteSpace=wrap;rounded=0;" vertex="1" parent="RDD4g2kwhbk00n5F4Vmj-23">
          <mxGeometry y="90" width="84" height="30" as="geometry" />
        </mxCell>
        <mxCell id="RDD4g2kwhbk00n5F4Vmj-24" style="edgeStyle=orthogonalEdgeStyle;rounded=0;orthogonalLoop=1;jettySize=auto;html=1;entryX=0.5;entryY=0;entryDx=0;entryDy=0;entryPerimeter=0;" edge="1" parent="RDD4g2kwhbk00n5F4Vmj-4" source="RDD4g2kwhbk00n5F4Vmj-1" target="RDD4g2kwhbk00n5F4Vmj-20">
          <mxGeometry relative="1" as="geometry" />
        </mxCell>
        <mxCell id="RDD4g2kwhbk00n5F4Vmj-31" value="" style="group" vertex="1" connectable="0" parent="RDD4g2kwhbk00n5F4Vmj-4">
          <mxGeometry x="572" y="-73" width="151" height="160" as="geometry" />
        </mxCell>
        <mxCell id="RDD4g2kwhbk00n5F4Vmj-30" value="Authorities SPI" style="text;html=1;align=center;verticalAlign=middle;whiteSpace=wrap;rounded=0;fontSize=19;" vertex="1" parent="RDD4g2kwhbk00n5F4Vmj-31">
          <mxGeometry width="151" height="30" as="geometry" />
        </mxCell>
        <mxCell id="RDD4g2kwhbk00n5F4Vmj-26" value="" style="sketch=0;points=[[0,0,0],[0.25,0,0],[0.5,0,0],[0.75,0,0],[1,0,0],[0,1,0],[0.25,1,0],[0.5,1,0],[0.75,1,0],[1,1,0],[0,0.25,0],[0,0.5,0],[0,0.75,0],[1,0.25,0],[1,0.5,0],[1,0.75,0]];outlineConnect=0;fontColor=#232F3E;fillColor=#7AA116;strokeColor=#ffffff;dashed=0;verticalLabelPosition=bottom;verticalAlign=top;align=center;html=1;fontSize=12;fontStyle=0;aspect=fixed;shape=mxgraph.aws4.resourceIcon;resIcon=mxgraph.aws4.s3;" vertex="1" parent="RDD4g2kwhbk00n5F4Vmj-31">
          <mxGeometry x="36.5" y="40" width="78" height="78" as="geometry" />
        </mxCell>
        <mxCell id="RDD4g2kwhbk00n5F4Vmj-27" value="S3&lt;div&gt;&lt;span style=&quot;background-color: transparent; color: light-dark(rgb(0, 0, 0), rgb(255, 255, 255));&quot;&gt;Bucket&lt;/span&gt;&lt;/div&gt;" style="text;html=1;align=center;verticalAlign=middle;whiteSpace=wrap;rounded=0;" vertex="1" parent="RDD4g2kwhbk00n5F4Vmj-31">
          <mxGeometry x="36.5" y="130" width="75" height="30" as="geometry" />
        </mxCell>
        <mxCell id="RDD4g2kwhbk00n5F4Vmj-42" value="" style="group" vertex="1" connectable="0" parent="RDD4g2kwhbk00n5F4Vmj-4">
          <mxGeometry x="498" y="-31.5" width="75" height="118.5" as="geometry" />
        </mxCell>
        <mxCell id="RDD4g2kwhbk00n5F4Vmj-36" value="" style="sketch=0;points=[[0,0,0],[0.25,0,0],[0.5,0,0],[0.75,0,0],[1,0,0],[0,1,0],[0.25,1,0],[0.5,1,0],[0.75,1,0],[1,1,0],[0,0.25,0],[0,0.5,0],[0,0.75,0],[1,0.25,0],[1,0.5,0],[1,0.75,0]];outlineConnect=0;fontColor=#232F3E;fillColor=#8C4FFF;strokeColor=#ffffff;dashed=0;verticalLabelPosition=bottom;verticalAlign=top;align=center;html=1;fontSize=12;fontStyle=0;aspect=fixed;shape=mxgraph.aws4.resourceIcon;resIcon=mxgraph.aws4.cloudfront;" vertex="1" parent="RDD4g2kwhbk00n5F4Vmj-42">
          <mxGeometry width="75" height="75" as="geometry" />
        </mxCell>
        <mxCell id="RDD4g2kwhbk00n5F4Vmj-41" value="CloudFront" style="text;html=1;align=center;verticalAlign=middle;whiteSpace=wrap;rounded=0;" vertex="1" parent="RDD4g2kwhbk00n5F4Vmj-42">
          <mxGeometry y="88.5" width="75" height="30" as="geometry" />
        </mxCell>
        <mxCell id="RDD4g2kwhbk00n5F4Vmj-38" style="edgeStyle=orthogonalEdgeStyle;rounded=0;orthogonalLoop=1;jettySize=auto;html=1;" edge="1" parent="RDD4g2kwhbk00n5F4Vmj-4" source="RDD4g2kwhbk00n5F4Vmj-36" target="RDD4g2kwhbk00n5F4Vmj-26">
          <mxGeometry relative="1" as="geometry" />
        </mxCell>
        <mxCell id="RDD4g2kwhbk00n5F4Vmj-71" value="" style="group" vertex="1" connectable="0" parent="RDD4g2kwhbk00n5F4Vmj-4">
          <mxGeometry x="330" y="-31.5" width="78" height="118" as="geometry" />
        </mxCell>
        <mxCell id="RDD4g2kwhbk00n5F4Vmj-64" value="" style="sketch=0;points=[[0,0,0],[0.25,0,0],[0.5,0,0],[0.75,0,0],[1,0,0],[0,1,0],[0.25,1,0],[0.5,1,0],[0.75,1,0],[1,1,0],[0,0.25,0],[0,0.5,0],[0,0.75,0],[1,0.25,0],[1,0.5,0],[1,0.75,0]];outlineConnect=0;fontColor=#232F3E;fillColor=#ED7100;strokeColor=#ffffff;dashed=0;verticalLabelPosition=bottom;verticalAlign=top;align=center;html=1;fontSize=12;fontStyle=0;aspect=fixed;shape=mxgraph.aws4.resourceIcon;resIcon=mxgraph.aws4.ec2;" vertex="1" parent="RDD4g2kwhbk00n5F4Vmj-71">
          <mxGeometry width="78" height="78" as="geometry" />
        </mxCell>
        <mxCell id="RDD4g2kwhbk00n5F4Vmj-68" value="Grafana" style="text;html=1;align=center;verticalAlign=middle;whiteSpace=wrap;rounded=0;" vertex="1" parent="RDD4g2kwhbk00n5F4Vmj-71">
          <mxGeometry x="1.5" y="88" width="75" height="30" as="geometry" />
        </mxCell>
        <mxCell id="RDD4g2kwhbk00n5F4Vmj-80" style="edgeStyle=orthogonalEdgeStyle;rounded=0;orthogonalLoop=1;jettySize=auto;html=1;entryX=0;entryY=0.5;entryDx=0;entryDy=0;entryPerimeter=0;" edge="1" parent="RDD4g2kwhbk00n5F4Vmj-4" source="RDD4g2kwhbk00n5F4Vmj-64" target="RDD4g2kwhbk00n5F4Vmj-1">
          <mxGeometry relative="1" as="geometry" />
        </mxCell>
        <mxCell id="RDD4g2kwhbk00n5F4Vmj-29" value="e" style="group" vertex="1" connectable="0" parent="1">
          <mxGeometry x="44" y="-90" width="740" height="500" as="geometry" />
        </mxCell>
        <mxCell id="RDD4g2kwhbk00n5F4Vmj-25" value="Public Subnet" style="sketch=0;outlineConnect=0;gradientColor=none;html=1;whiteSpace=wrap;fontSize=12;fontStyle=0;shape=mxgraph.aws4.group;grIcon=mxgraph.aws4.group_subnet;strokeColor=#879196;fillColor=none;verticalAlign=top;align=left;spacingLeft=30;fontColor=#879196;dashed=0;" vertex="1" parent="RDD4g2kwhbk00n5F4Vmj-29">
          <mxGeometry y="260" width="740" height="240" as="geometry" />
        </mxCell>
        <mxCell id="RDD4g2kwhbk00n5F4Vmj-35" value="" style="group" vertex="1" connectable="0" parent="RDD4g2kwhbk00n5F4Vmj-29">
          <mxGeometry x="314" y="180" width="109" height="112" as="geometry" />
        </mxCell>
        <mxCell id="RDD4g2kwhbk00n5F4Vmj-32" value="" style="outlineConnect=0;dashed=0;verticalLabelPosition=bottom;verticalAlign=top;align=center;html=1;shape=mxgraph.aws3.internet_gateway;fillColor=#F58534;gradientColor=none;" vertex="1" parent="RDD4g2kwhbk00n5F4Vmj-35">
          <mxGeometry x="20" y="40" width="69" height="72" as="geometry" />
        </mxCell>
        <mxCell id="RDD4g2kwhbk00n5F4Vmj-33" value="Internet Gateway" style="text;html=1;align=center;verticalAlign=middle;whiteSpace=wrap;rounded=0;" vertex="1" parent="RDD4g2kwhbk00n5F4Vmj-35">
          <mxGeometry y="5" width="109" height="30" as="geometry" />
        </mxCell>
        <mxCell id="RDD4g2kwhbk00n5F4Vmj-55" value="" style="group" vertex="1" connectable="0" parent="RDD4g2kwhbk00n5F4Vmj-29">
          <mxGeometry x="72" y="340" width="78" height="116" as="geometry" />
        </mxCell>
        <mxCell id="RDD4g2kwhbk00n5F4Vmj-43" value="" style="outlineConnect=0;dashed=0;verticalLabelPosition=bottom;verticalAlign=top;align=center;html=1;shape=mxgraph.aws3.vpc_nat_gateway;fillColor=#F58534;gradientColor=none;" vertex="1" parent="RDD4g2kwhbk00n5F4Vmj-55">
          <mxGeometry x="4.5" width="69" height="72" as="geometry" />
        </mxCell>
        <mxCell id="RDD4g2kwhbk00n5F4Vmj-44" value="NAT Gateway" style="text;html=1;align=center;verticalAlign=middle;whiteSpace=wrap;rounded=0;" vertex="1" parent="RDD4g2kwhbk00n5F4Vmj-55">
          <mxGeometry y="86" width="78" height="30" as="geometry" />
        </mxCell>
        <mxCell id="RDD4g2kwhbk00n5F4Vmj-72" value="" style="group" vertex="1" connectable="0" parent="RDD4g2kwhbk00n5F4Vmj-29">
          <mxGeometry x="326" y="343" width="85" height="119" as="geometry" />
        </mxCell>
        <mxCell id="RDD4g2kwhbk00n5F4Vmj-59" value="" style="group" vertex="1" connectable="0" parent="RDD4g2kwhbk00n5F4Vmj-72">
          <mxGeometry width="85" height="119" as="geometry" />
        </mxCell>
        <mxCell id="RDD4g2kwhbk00n5F4Vmj-58" value="NGINX&lt;div&gt;Reverse Proxy&lt;/div&gt;" style="text;html=1;align=center;verticalAlign=middle;whiteSpace=wrap;rounded=0;" vertex="1" parent="RDD4g2kwhbk00n5F4Vmj-59">
          <mxGeometry y="89" width="85" height="30" as="geometry" />
        </mxCell>
        <mxCell id="RDD4g2kwhbk00n5F4Vmj-57" value="" style="sketch=0;points=[[0,0,0],[0.25,0,0],[0.5,0,0],[0.75,0,0],[1,0,0],[0,1,0],[0.25,1,0],[0.5,1,0],[0.75,1,0],[1,1,0],[0,0.25,0],[0,0.5,0],[0,0.75,0],[1,0.25,0],[1,0.5,0],[1,0.75,0]];outlineConnect=0;fontColor=#232F3E;fillColor=#ED7100;strokeColor=#ffffff;dashed=0;verticalLabelPosition=bottom;verticalAlign=top;align=center;html=1;fontSize=12;fontStyle=0;aspect=fixed;shape=mxgraph.aws4.resourceIcon;resIcon=mxgraph.aws4.ec2;" vertex="1" parent="RDD4g2kwhbk00n5F4Vmj-72">
          <mxGeometry x="3.5" y="0.5" width="78" height="78" as="geometry" />
        </mxCell>
        <mxCell id="RDD4g2kwhbk00n5F4Vmj-73" style="edgeStyle=orthogonalEdgeStyle;rounded=0;orthogonalLoop=1;jettySize=auto;html=1;entryX=0.5;entryY=1;entryDx=0;entryDy=0;entryPerimeter=0;" edge="1" parent="RDD4g2kwhbk00n5F4Vmj-29" source="RDD4g2kwhbk00n5F4Vmj-57" target="RDD4g2kwhbk00n5F4Vmj-32">
          <mxGeometry relative="1" as="geometry" />
        </mxCell>
        <mxCell id="RDD4g2kwhbk00n5F4Vmj-77" style="edgeStyle=orthogonalEdgeStyle;rounded=0;orthogonalLoop=1;jettySize=auto;html=1;entryX=0;entryY=0.5;entryDx=0;entryDy=0;entryPerimeter=0;" edge="1" parent="RDD4g2kwhbk00n5F4Vmj-29" source="RDD4g2kwhbk00n5F4Vmj-43" target="RDD4g2kwhbk00n5F4Vmj-32">
          <mxGeometry relative="1" as="geometry">
            <Array as="points">
              <mxPoint x="196" y="376" />
              <mxPoint x="196" y="256" />
            </Array>
          </mxGeometry>
        </mxCell>
        <mxCell id="RDD4g2kwhbk00n5F4Vmj-51" style="edgeStyle=orthogonalEdgeStyle;rounded=0;orthogonalLoop=1;jettySize=auto;html=1;entryX=0.5;entryY=1;entryDx=0;entryDy=0;entryPerimeter=0;exitX=0.5;exitY=0;exitDx=0;exitDy=0;exitPerimeter=0;" edge="1" parent="1" source="RDD4g2kwhbk00n5F4Vmj-1" target="RDD4g2kwhbk00n5F4Vmj-43">
          <mxGeometry relative="1" as="geometry" />
        </mxCell>
        <mxCell id="RDD4g2kwhbk00n5F4Vmj-76" style="edgeStyle=orthogonalEdgeStyle;rounded=0;orthogonalLoop=1;jettySize=auto;html=1;" edge="1" parent="1" source="RDD4g2kwhbk00n5F4Vmj-57" target="RDD4g2kwhbk00n5F4Vmj-36">
          <mxGeometry relative="1" as="geometry" />
        </mxCell>
        <mxCell id="RDD4g2kwhbk00n5F4Vmj-78" style="edgeStyle=orthogonalEdgeStyle;rounded=0;orthogonalLoop=1;jettySize=auto;html=1;entryX=1;entryY=0.25;entryDx=0;entryDy=0;entryPerimeter=0;" edge="1" parent="1" source="RDD4g2kwhbk00n5F4Vmj-57" target="RDD4g2kwhbk00n5F4Vmj-1">
          <mxGeometry relative="1" as="geometry" />
        </mxCell>
        <mxCell id="RDD4g2kwhbk00n5F4Vmj-79" style="edgeStyle=orthogonalEdgeStyle;rounded=0;orthogonalLoop=1;jettySize=auto;html=1;exitX=0.5;exitY=1;exitDx=0;exitDy=0;exitPerimeter=0;" edge="1" parent="1" source="RDD4g2kwhbk00n5F4Vmj-57" target="RDD4g2kwhbk00n5F4Vmj-64">
          <mxGeometry relative="1" as="geometry" />
        </mxCell>
        <mxCell id="RDD4g2kwhbk00n5F4Vmj-82" value="Performance Analytics" style="text;html=1;align=center;verticalAlign=middle;whiteSpace=wrap;rounded=0;fontSize=19;" vertex="1" parent="1">
          <mxGeometry x="315.75" y="437" width="196.5" height="30" as="geometry" />
        </mxCell>
      </root>
    </mxGraphModel>
  </diagram>
</mxfile>
